<?xml version="1.0" standalone="no"?>
<!DOCTYPE svg PUBLIC "-//W3C//DTD SVG 20010904//EN"
 "http://www.w3.org/TR/2001/REC-SVG-20010904/DTD/svg10.dtd">
<svg version="1.0" xmlns="http://www.w3.org/2000/svg"
 width="180.000000pt" height="180.000000pt" viewBox="0 0 180.000000 180.000000"
 preserveAspectRatio="xMidYMid meet">
<metadata>
Created by potrace 1.11, written by Peter Selinger 2001-2013
</metadata>
<g transform="translate(0.000000,180.000000) scale(0.100000,-0.100000)"
fill="#000000" stroke="none">
<path d="M290 895 l0 -775 615 0 615 0 0 775 0 775 -615 0 -615 0 0 -775z
m1200 0 l0 -745 -585 0 -585 0 0 745 0 745 585 0 585 0 0 -745z"/>
<path d="M440 895 l0 -625 465 0 465 0 0 625 0 625 -465 0 -465 0 0 -625z
m900 460 l0 -135 -134 0 -133 0 -7 43 c-17 109 -86 181 -175 181 -68 0 -104
-26 -144 -103 -19 -36 -37 -78 -41 -93 l-6 -28 -115 0 -115 0 0 135 0 135 435
0 435 0 0 -135z m-363 23 c41 -38 52 -70 69 -209 l16 -134 41 -37 c38 -33 40
-37 22 -44 -11 -3 -44 -17 -73 -30 -38 -17 -54 -20 -57 -11 -2 7 -6 99 -9 205
-3 107 -11 202 -16 213 -18 33 -57 51 -110 51 -54 0 -58 13 -7 26 42 11 93 -1
124 -30z m-51 -42 c16 -12 20 -31 25 -108 5 -89 5 -94 -18 -115 -36 -35 -97
-27 -130 16 -19 25 -16 91 5 107 16 13 16 14 -5 20 -18 5 -23 14 -23 40 0 21
6 37 18 43 25 15 105 13 128 -3z m-148 -222 c6 -12 23 -29 37 -38 33 -22 32
-36 -8 -63 -42 -29 -49 -29 -41 1 3 14 -1 37 -10 54 -20 38 -31 131 -21 169 7
25 9 21 20 -37 6 -36 16 -74 23 -86z m-74 24 c4 -28 13 -63 20 -77 21 -42 9
-99 -24 -116 -40 -21 -87 -82 -105 -135 -10 -30 -34 -64 -70 -100 l-55 -54 0
267 0 267 114 0 113 0 7 -52z m635 -235 l-1 -288 -28 84 c-46 133 -99 229
-162 296 -55 59 -57 64 -64 128 l-7 67 132 0 131 0 -1 -287z m-379 73 l0 -104
-31 -12 c-36 -16 -120 0 -158 29 -31 23 -19 46 49 95 31 23 50 43 50 56 0 14
7 20 23 20 12 0 29 5 37 10 8 5 18 10 23 10 4 0 7 -47 7 -104z m210 -55 c0 -5
-21 -16 -46 -25 -138 -47 -237 -154 -265 -286 -12 -55 -12 -55 -40 -40 -28 15
-24 57 12 128 39 79 100 132 214 188 88 43 125 53 125 35z m-408 -61 c18 -11
52 -25 75 -31 l43 -11 -31 -36 c-38 -43 -79 -127 -79 -164 0 -25 -2 -26 -39
-21 -44 6 -53 -2 -61 -62 -4 -31 -10 -41 -26 -43 -28 -4 -38 32 -19 68 14 26
11 40 -6 40 -17 0 -41 -62 -35 -89 l6 -26 -20 24 c-11 13 -20 29 -20 36 0 24
19 65 32 70 72 25 74 26 55 36 -36 21 -101 -21 -112 -72 -10 -44 12 -97 47
-115 25 -13 38 -14 77 -4 25 6 51 16 58 22 9 7 13 7 13 -1 0 -6 -13 -17 -30
-26 -25 -13 -30 -22 -30 -50 0 -24 5 -35 15 -35 9 0 15 9 15 25 0 17 9 29 30
40 29 15 50 13 50 -5 0 -4 -11 -11 -25 -14 -23 -6 -55 -50 -55 -76 0 -22 28
-9 40 19 13 32 49 45 100 35 40 -8 39 9 -2 35 -18 11 -48 35 -67 55 -20 20
-39 32 -48 29 -11 -4 -14 1 -11 23 3 26 6 29 36 26 43 -3 123 -44 172 -88 36
-33 57 -34 44 -1 -4 11 9 17 61 26 62 11 70 10 102 -9 20 -11 38 -19 40 -16
12 12 -10 38 -44 52 -33 14 -45 14 -117 1 -104 -19 -120 -11 -111 53 9 66 59
162 106 205 44 39 124 80 177 91 31 6 32 5 60 -57 70 -155 112 -319 112 -436
l0 -83 -435 0 -435 0 0 149 c0 147 0 149 28 183 41 52 97 98 119 98 23 0 43
-21 66 -72 9 -21 20 -38 25 -38 19 0 21 15 5 39 -14 20 -18 45 -17 109 2 93
-15 108 -30 29 -10 -49 -12 -52 -35 -38 -22 14 2 82 46 128 35 37 36 38 44 16
5 -13 23 -32 41 -43z"/>
<path d="M850 1214 c0 -50 22 -59 28 -12 2 16 11 28 23 31 32 9 21 27 -16 27
-35 0 -35 0 -35 -46z"/>
<path d="M1095 806 c-17 -7 -39 -25 -49 -40 -19 -30 -50 -172 -41 -195 10 -26
24 3 40 84 17 89 41 123 94 134 18 3 32 11 32 16 0 15 -43 16 -76 1z"/>
<path d="M830 478 c1 -16 90 -88 107 -88 24 0 13 18 -36 59 -50 42 -71 51 -71
29z"/>
</g>
</svg>
