<?xml version="1.0" standalone="no"?>
<!DOCTYPE svg PUBLIC "-//W3C//DTD SVG 20010904//EN"
 "http://www.w3.org/TR/2001/REC-SVG-20010904/DTD/svg10.dtd">
<svg version="1.0" xmlns="http://www.w3.org/2000/svg"
 width="512.000000pt" height="512.000000pt" viewBox="0 0 512.000000 512.000000"
 preserveAspectRatio="xMidYMid meet">
<metadata>
Created by potrace 1.11, written by Peter Selinger 2001-2013
</metadata>
<g transform="translate(0.000000,512.000000) scale(0.100000,-0.100000)"
fill="#000000" stroke="none">
<path d="M2194 4836 c-177 -33 -312 -109 -449 -251 -57 -59 -178 -226 -169
-234 2 -2 24 -5 50 -7 39 -4 51 0 79 25 18 16 71 43 117 60 45 17 107 43 137
58 49 25 56 32 66 73 6 26 22 64 35 85 l25 40 3 -31 c2 -17 -6 -57 -16 -88
l-19 -57 23 -9 c13 -5 79 -19 146 -30 147 -24 211 -45 224 -74 5 -11 35 -40
66 -64 46 -35 60 -51 68 -85 17 -67 30 -93 56 -118 13 -12 24 -30 24 -40 0
-11 22 -30 60 -51 33 -18 63 -41 66 -51 10 -33 6 -105 -10 -161 -16 -53 -18
-55 -59 -64 -30 -6 -54 -4 -82 5 -24 9 -57 12 -84 8 -111 -15 -233 -3 -282 28
-15 9 -24 9 -41 -2 -24 -15 -52 -29 -78 -41 -8 -3 -26 -28 -40 -56 -22 -43
-25 -62 -25 -150 0 -110 10 -136 48 -128 12 3 29 6 37 7 21 3 41 63 41 119 -1
39 5 54 31 83 54 62 118 84 173 60 l30 -13 -40 -2 c-80 -3 -117 -17 -135 -50
-12 -23 -8 -24 37 -11 29 8 32 7 43 -19 15 -36 29 -41 90 -34 70 9 78 -2 30
-39 l-41 -32 35 -3 c47 -4 72 11 95 57 15 29 29 40 61 50 23 7 58 28 79 47 61
54 100 44 120 -34 23 -85 -38 -320 -101 -389 -12 -13 -18 -29 -14 -38 4 -11 2
-15 -6 -13 -7 3 -21 -11 -31 -30 -20 -38 -20 -99 1 -94 8 1 11 -1 8 -6 -2 -4
-1 -14 4 -21 5 -9 -3 -30 -21 -59 -17 -27 -27 -53 -24 -66 7 -26 -18 -63 -92
-139 -145 -147 -388 -260 -506 -235 -59 13 -102 47 -185 150 -41 51 -84 99
-95 107 -21 15 -87 146 -87 173 0 10 5 26 11 36 9 14 3 35 -30 105 -23 47 -41
91 -41 97 0 5 -14 58 -30 117 -19 68 -30 127 -29 158 3 52 26 115 42 115 12 0
47 -40 47 -54 1 -6 8 1 16 16 8 16 32 37 52 47 l38 19 13 -30 c13 -29 15 -29
67 -24 55 6 94 23 94 42 0 6 -12 21 -26 35 -23 21 -34 24 -110 24 -81 0 -84 1
-64 17 16 13 34 15 81 12 55 -4 64 -8 100 -46 21 -23 41 -39 44 -36 8 7 -15
69 -37 100 -29 41 -75 46 -186 17 -85 -21 -96 -22 -120 -9 -18 11 -29 28 -35
55 -10 47 -2 167 17 262 8 37 17 90 21 116 l6 48 -47 -3 -48 -3 -11 -50 c-14
-63 -27 -87 -77 -141 -47 -51 -51 -79 -31 -191 18 -102 12 -143 -32 -214 -39
-64 -38 -49 -20 -214 7 -60 7 -61 -41 -130 -61 -89 -77 -176 -78 -420 -1 -250
41 -439 123 -554 12 -16 21 -41 21 -55 0 -18 7 -29 23 -35 27 -10 74 -57 82
-80 7 -22 195 -101 260 -110 29 -4 77 -1 115 7 36 8 85 11 110 8 25 -4 53 -8
63 -9 9 -1 42 14 72 33 58 38 62 48 44 114 -25 91 -33 160 -22 181 8 14 12 15
24 3 8 -8 32 -22 54 -32 101 -46 141 -68 155 -84 12 -14 32 -17 103 -16 48 0
109 -2 137 -6 44 -6 76 1 90 20 6 8 98 56 124 64 13 5 17 2 12 -9 -4 -11 2
-15 24 -15 19 0 30 -5 30 -14 0 -7 18 -25 40 -40 27 -18 43 -36 46 -56 4 -16
11 -28 18 -27 7 1 11 -14 11 -41 0 -44 4 -49 23 -30 16 16 16 -5 1 -33 -8 -16
-7 -23 4 -32 38 -30 44 -63 29 -162 -14 -91 -14 -97 6 -144 18 -45 19 -51 5
-63 -9 -7 -27 -35 -39 -63 -23 -49 -23 -50 -4 -59 24 -11 25 -19 6 -35 -13
-11 -13 -18 -1 -52 8 -21 11 -39 7 -39 -9 0 -42 -54 -42 -68 0 -6 19 -17 42
-24 41 -14 46 -13 108 14 111 49 170 80 170 89 0 5 7 6 15 3 7 -3 29 5 47 19
41 31 103 60 204 95 75 27 79 30 82 60 4 37 27 46 163 61 180 20 181 38 13
286 -138 205 -174 277 -198 401 -7 33 -11 78 -10 100 4 63 5 139 1 294 -2 122
-6 154 -25 202 -24 60 -30 83 -37 139 -2 20 -13 74 -25 120 -24 99 -26 107
-35 179 -3 30 -8 66 -10 80 -2 14 -6 57 -10 95 -17 187 -26 267 -30 285 -3 8
-7 33 -10 55 -21 143 -28 179 -46 255 -80 327 -347 604 -678 702 -153 45 -378
60 -517 34z"/>
<path d="M1794 3505 c-21 -16 -20 -16 16 -20 25 -3 50 10 50 26 0 14 -44 10
-66 -6z"/>
<path d="M2122 3373 c-6 -3 -10 -9 -6 -14 7 -12 41 -12 48 0 7 10 -23 20 -42
14z"/>
<path d="M2185 3159 c-5 -7 -24 -10 -50 -7 -35 4 -50 0 -86 -24 -61 -41 -85
-45 -113 -19 -23 22 -56 28 -56 11 0 -5 16 -24 36 -42 72 -65 81 -74 91 -92 9
-16 22 -19 75 -19 91 0 117 16 142 85 16 44 18 63 10 85 -10 30 -37 42 -49 22z"/>
<path d="M2298 2955 c-2 -3 -51 -6 -107 -6 -92 -2 -106 -5 -131 -26 -32 -27
-61 -29 -120 -8 -53 19 -84 19 -99 1 -18 -22 2 -29 93 -33 45 -1 87 -5 95 -8
7 -3 57 -8 110 -11 121 -8 166 10 185 74 5 15 3 22 -7 22 -7 0 -16 -2 -19 -5z"/>
<path d="M2183 2839 c-5 -5 -32 -12 -59 -15 -53 -6 -116 -32 -121 -50 -6 -18
48 -32 103 -28 55 4 140 28 137 38 -14 60 -35 80 -60 55z"/>
<path d="M1456 1917 c-33 -36 -89 -81 -122 -101 -66 -38 -71 -46 -118 -178
-18 -50 -34 -79 -46 -83 -10 -3 -23 -18 -29 -33 -15 -39 -46 -70 -142 -139
-105 -76 -141 -115 -210 -229 -56 -91 -103 -145 -200 -226 -79 -66 -99 -110
-114 -260 -3 -29 -8 -62 -10 -73 -3 -16 5 -24 43 -39 26 -11 101 -45 167 -77
147 -70 221 -100 305 -127 116 -36 165 -45 405 -68 33 -3 364 -7 735 -9 782
-3 728 -9 955 100 267 128 436 194 535 210 58 9 67 14 96 53 64 84 161 136
275 148 53 5 66 11 87 36 188 223 362 303 532 244 24 -8 46 -13 48 -11 6 6
-82 129 -159 221 -104 124 -193 195 -306 243 -118 50 -219 56 -358 20 -44 -12
-115 -50 -133 -72 -10 -12 -5 -13 31 -9 23 3 85 6 137 6 161 1 200 -25 59 -40
-103 -10 -104 -32 -1 -40 31 -2 68 -7 82 -10 23 -5 20 -8 -25 -26 -27 -11
-144 -46 -260 -78 -246 -69 -256 -73 -400 -138 -122 -55 -181 -77 -240 -88
-22 -4 -45 -15 -52 -24 -7 -10 -26 -23 -43 -30 -32 -13 -38 -25 -17 -33 21 -7
-30 -53 -81 -73 -79 -29 -110 -53 -133 -98 -24 -49 -174 -92 -214 -62 -18 14
-19 16 -4 31 9 9 42 20 74 24 39 5 63 14 72 27 9 12 10 20 3 22 -5 2 -10 10
-10 17 0 18 -49 9 -73 -13 -21 -19 -86 -21 -207 -8 -41 4 -88 9 -105 11 -57 6
-130 16 -145 20 -8 2 -31 7 -50 10 -83 14 -295 71 -429 116 -138 45 -148 51
-189 96 -88 98 -100 139 -61 216 34 67 79 127 94 127 8 0 22 11 31 25 l16 25
17 -22 c10 -12 26 -23 37 -24 17 -3 19 3 18 40 -1 40 15 94 65 226 12 30 21
67 21 83 0 21 8 33 35 48 37 22 45 39 20 39 -8 0 -67 27 -131 61 l-117 61 -61
-65z"/>
<path d="M2850 945 c-5 -14 -16 -25 -25 -25 -8 0 -15 -7 -15 -15 0 -22 32 -18
58 5 18 17 20 25 12 40 -14 26 -19 25 -30 -5z"/>
</g>
</svg>
